PathFileType	4	(X/Y/Z)	C:/Users/opensim2020/Desktop/walking_exp_matlab/subject06_walking16_straight_03.trc																																																																																																																																																							
DataRate	CameraRate	NumFrames	NumMarkers	Units	OrigDataRate	OrigDataStartFrame	OrigNumFrames																																																																																																																																																			
100	100	8	51	mm	100	2999	283																																																																																																																																																			
Frame#	Time	LFHD			RFHD			LBHD			RBHD			C7			T10			CLAV			STRN			RBAK			LSHO			LUPA			LELB			LFRM			LWRA			LWRB			LFIN			RSHO			RUPA			RELB			RFRM			RWRA			RWRB			RFIN			LASI			RASI			LPSI			RPSI			LTHI			LKNE			LTIB			LANK			LHEE			LTOE			RTHI			RKNE			RTIB			RANK			RHEE			RTOE			*39			*40			*41			*42			*43			*44			*45			*46			*47			*48			*49			*50		
		X1	Y1	Z1	X2	Y2	Z2	X3	Y3	Z3	X4	Y4	Z4	X5	Y5	Z5	X6	Y6	Z6	X7	Y7	Z7	X8	Y8	Z8	X9	Y9	Z9	X10	Y10	Z10	X11	Y11	Z11	X12	Y12	Z12	X13	Y13	Z13	X14	Y14	Z14	X15	Y15	Z15	X16	Y16	Z16	X17	Y17	Z17	X18	Y18	Z18	X19	Y19	Z19	X20	Y20	Z20	X21	Y21	Z21	X22	Y22	Z22	X23	Y23	Z23	X24	Y24	Z24	X25	Y25	Z25	X26	Y26	Z26	X27	Y27	Z27	X28	Y28	Z28	X29	Y29	Z29	X30	Y30	Z30	X31	Y31	Z31	X32	Y32	Z32	X33	Y33	Z33	X34	Y34	Z34	X35	Y35	Z35	X36	Y36	Z36	X37	Y37	Z37	X38	Y38	Z38	X39	Y39	Z39	X40	Y40	Z40	X41	Y41	Z41	X42	Y42	Z42	X43	Y43	Z43	X44	Y44	Z44	X45	Y45	Z45	X46	Y46	Z46	X47	Y47	Z47	X48	Y48	Z48	X49	Y49	Z49	X50	Y50	Z50	X51	Y51	Z51
																																																																																																																																																										
177	1.76	414.98764	1656.29871	-1048.21033	405.12366	1642.49963	-917.3371	284.57861	1598.67407	-1061.13977	275.79181	1589.48364	-932.38214	282.20212	1441.25452	-1001.28314	240.1097	1114.63062	-983.88177	391.263	1362.99011	-999.56738	427.61395	1186.75745	-1002.94421	206.68648	1273.93762	-914.99316	333.8884	1393.64734	-1161.82495	290.16675	1194.93237	-1225.13293	259.12201	1086.51538	-1229.47986	249.44524	935.30426	-1245.13965	285.45819	812.48181	-1199.9436	223.19809	819.10388	-1235.22327	244.32182	730.17615	-1231.42041	344.05145	1398.19019	-840.04047	344.54834	1202.20007	-744.85529	390.09229	1091.15613	-725.44781	466.81046	1001.29022	-709.25977	595.77448	927.56036	-744.99152	552.84113	894.64886	-705.76428	628.09436	857.7467	-704.98303	417.18219	954.37622	-1094.91162	413.21469	955.05695	-875.60907	257.09961	978.5708	-1072.51538	261.96451	984.41949	-903.28583	405.72308	644.66101	-1168.15527	459.5965	493.11322	-1140.51111	500.31354	241.03983	-1141.92126	558.74689	75.8688	-1107.81482	527.68195	49.43731	-1059.60205	705.79657	86.2391	-1107.58826	314.3992	625.15436	-833.86554	291.22464	499.90598	-854.88879	167.98584	257.85324	-862.21704	99.39957	84.4869	-912.63959	52.20392	69.48122	-955.67474	244.30763	30.09059	-922.50415	309.40744	1690.6615	-997.0705	NaN	NaN	NaN	NaN	NaN	NaN	NaN	NaN	NaN	NaN	NaN	NaN	NaN	NaN	NaN	NaN	NaN	NaN	NaN	NaN	NaN	NaN	NaN	NaN	NaN	NaN	NaN	NaN	NaN	NaN	NaN	NaN	NaN
178	1.77	423.36902	1655.25427	-1049.4126	413.56464	1641.5332	-918.53632	293.03079	1597.57898	-1062.29077	284.26404	1588.40967	-933.55981	290.651	1440.19458	-1002.51172	248.68466	1113.47021	-985.38892	399.80038	1361.92725	-1000.6875	436.25891	1185.77917	-1004.03973	215.14435	1272.90503	-916.34259	342.6665	1392.58533	-1163.04578	298.54535	1193.87659	-1226.14026	267.18546	1085.51636	-1230.34009	257.29044	934.29126	-1245.85706	293.18747	811.46252	-1200.68604	230.79109	818.15955	-1235.78882	251.69731	729.22369	-1232.03333	352.46783	1397.09875	-841.2088	352.65637	1201.07751	-746.06659	397.93423	1089.94653	-726.68823	474.67993	1000.16077	-710.63428	603.66302	926.6712	-746.49481	560.81561	893.64423	-707.30035	636.13416	856.84735	-706.52087	426.4718	953.60382	-1096.13037	421.77414	954.1814	-876.75018	266.26575	977.47522	-1074.36914	270.51083	983.12909	-905.12305	415.65622	643.83582	-1168.86829	469.47763	492.61069	-1141.28369	510.60675	240.25027	-1142.87402	568.98157	75.14727	-1108.34741	537.82269	48.42995	-1060.1322	715.8374	86.2826	-1107.23157	322.77448	624.2251	-835.11951	299.49414	498.89124	-855.97961	172.6676	258.41708	-862.76453	100.52532	86.65962	-912.11438	53.03124	72.09902	-955.18054	244.55714	30.08771	-922.57983	317.77588	1689.60046	-998.22791	NaN	NaN	NaN	NaN	NaN	NaN	NaN	NaN	NaN	NaN	NaN	NaN	NaN	NaN	NaN	NaN	NaN	NaN	NaN	NaN	NaN	NaN	NaN	NaN	NaN	NaN	NaN	NaN	NaN	NaN	NaN	NaN	NaN
179	1.78	431.84155	1654.36292	-1050.62244	422.05948	1640.56848	-919.80872	301.59369	1596.54407	-1063.53369	292.74893	1587.46655	-934.80713	299.1936	1439.14771	-1003.78339	257.40793	1112.42371	-987.0484	408.37497	1360.97375	-1001.87238	445.00128	1184.8573	-1005.23578	223.63231	1271.82471	-917.75336	351.40359	1391.55115	-1164.29321	307.13266	1192.87219	-1227.27649	275.67752	1084.54431	-1231.38635	265.48355	933.31348	-1246.7627	301.14194	810.37494	-1201.54797	238.86708	817.15253	-1236.49695	259.71811	728.26221	-1232.83411	360.86923	1396.02087	-842.45782	360.77399	1199.96082	-747.35681	405.60538	1088.72205	-728.0249	482.24371	998.83124	-712.11597	611.35492	925.49298	-747.96771	568.34631	892.29388	-708.90521	643.92664	855.64117	-707.88483	435.83691	952.79285	-1097.4801	430.51837	953.28833	-877.86835	275.62921	976.41132	-1076.16235	279.61771	981.84863	-907.12177	425.90353	643.15094	-1169.59021	479.5722	492.09225	-1142.05322	520.33484	239.37283	-1143.95056	577.4848	73.98271	-1109.1167	546.02539	47.12852	-1061.14771	724.21857	85.13349	-1106.89636	331.35315	623.36243	-836.42664	307.80133	498.02542	-857.25873	177.49144	259.13306	-863.27515	101.89673	88.55916	-912.00439	54.03214	74.98685	-954.66309	244.78709	30.12187	-922.71533	326.22833	1688.55603	-999.54437	NaN	NaN	NaN	NaN	NaN	NaN	NaN	NaN	NaN	NaN	NaN	NaN	NaN	NaN	NaN	NaN	NaN	NaN	NaN	NaN	NaN	NaN	NaN	NaN	NaN	NaN	NaN	NaN	NaN	NaN	NaN	NaN	NaN
180	1.79	440.33966	1653.3501	-1051.95483	430.58066	1639.70276	-921.10425	310.07706	1595.52942	-1064.81946	301.24207	1586.48572	-936.06982	307.73535	1438.11414	-1005.09619	266.48544	1111.20862	-988.66473	417.04803	1360.0863	-1003.14746	453.97232	1184.00879	-1006.50934	232.29997	1270.68127	-919.30035	360.20065	1390.70276	-1165.64075	316.06955	1191.92102	-1228.54858	284.5256	1083.56055	-1232.51001	274.2424	932.38135	-1247.79883	309.89523	809.46796	-1202.57605	247.39676	816.24377	-1237.53503	268.18979	727.31458	-1233.84497	369.34378	1395.00598	-843.75757	368.75409	1198.88599	-748.71747	413.12912	1087.45215	-729.41101	489.52545	997.39581	-713.59991	618.3194	923.67151	-749.65826	575.41364	890.76788	-710.56683	650.58081	853.69727	-709.88672	445.59579	952.04602	-1098.86804	439.40796	952.37732	-879.13763	283.94244	975.6955	-1078.23462	288.69751	980.6062	-908.92572	436.41727	642.51178	-1170.42676	489.80453	491.43381	-1142.72424	529.37366	238.41159	-1145.34131	584.5423	72.40636	-1110.11597	552.25366	45.58902	-1062.59009	731.02399	83.03712	-1106.47864	340.09604	622.27216	-837.69965	316.89606	496.85083	-858.32202	182.35886	260.00275	-863.75946	103.34627	90.89402	-911.69269	55.15302	78.1374	-954.15765	244.47597	29.86227	-922.67102	334.74432	1687.60181	-1000.83423	NaN	NaN	NaN	NaN	NaN	NaN	NaN	NaN	NaN	NaN	NaN	NaN	NaN	NaN	NaN	NaN	NaN	NaN	NaN	NaN	NaN	NaN	NaN	NaN	NaN	NaN	NaN	NaN	NaN	NaN	NaN	NaN	NaN
181	1.8	448.91278	1652.50635	-1053.26917	439.11206	1638.7417	-922.43597	318.57501	1594.62842	-1066.14087	309.81393	1585.57666	-937.41968	316.32568	1437.11304	-1006.54913	275.75696	1110.0863	-990.40637	425.77765	1359.26233	-1004.55042	463.08838	1183.24121	-1007.89331	241.0464	1269.56067	-920.94318	369.02213	1389.80859	-1167.05481	325.16907	1191.0144	-1229.92334	293.70169	1082.66602	-1233.81775	283.33289	931.42902	-1249.02075	319.30087	808.77228	-1203.93958	256.51431	815.37067	-1238.70374	277.30807	726.43872	-1235.08594	377.82654	1394.00757	-845.16321	376.78925	1197.83545	-750.1972	420.56195	1086.17712	-730.90045	496.58673	995.76135	-715.20258	625.08508	921.59064	-751.30621	582.01202	888.6734	-712.17078	657.23938	851.53888	-711.34406	455.39279	951.24652	-1100.24524	448.51825	951.35602	-880.33081	293.98474	974.72522	-1079.98059	297.92865	979.47473	-910.70905	447.07214	641.86487	-1171.28015	499.8559	490.60727	-1143.86768	537.37341	236.89043	-1146.71643	590.19196	70.43452	-1111.38232	556.86078	43.90343	-1064.71118	736.4071	80.05211	-1105.90735	349.0979	621.29327	-838.95959	325.62369	495.91531	-859.5246	187.51649	261.16656	-864.24194	104.90971	93.51084	-911.42072	56.6032	81.54623	-953.61237	244.57677	29.78772	-922.75763	343.29135	1686.73352	-1002.21838	NaN	NaN	NaN	NaN	NaN	NaN	NaN	NaN	NaN	NaN	NaN	NaN	NaN	NaN	NaN	NaN	NaN	NaN	NaN	NaN	NaN	NaN	NaN	NaN	NaN	NaN	NaN	NaN	NaN	NaN	NaN	NaN	NaN
182	1.81	457.48062	1651.75464	-1054.59265	447.61038	1637.90039	-923.81195	327.1163	1593.82312	-1067.55151	318.35059	1584.75195	-938.80164	324.99411	1436.12268	-1008.11206	285.17856	1108.94409	-992.25696	434.56802	1358.453	-1005.98193	472.35983	1182.599	-1009.30774	249.90233	1268.3396	-922.70496	377.91251	1389.02112	-1168.55359	334.52487	1190.18787	-1231.43555	303.11893	1081.79797	-1235.24902	292.95505	930.5816	-1250.51721	328.5524	807.68799	-1205.17065	266.09344	814.48816	-1240.22461	286.93027	725.63428	-1236.46436	386.32339	1393.01721	-846.64618	384.03534	1196.65845	-751.93774	427.85654	1084.86951	-732.48956	503.42755	994.01178	-716.82202	631.81976	919.17145	-752.92694	588.25458	886.39703	-713.89685	663.34137	848.86646	-713.10553	465.70401	950.52985	-1101.6521	457.92328	950.54901	-881.86749	304.04736	973.81738	-1081.83887	307.40451	978.42035	-912.61237	457.94666	641.17035	-1172.19226	509.89749	489.53387	-1144.67151	544.81897	235.46922	-1148.28149	594.5592	67.81291	-1112.49731	559.86804	42.21267	-1066.45349	740.56403	75.63113	-1105.42883	358.30112	620.37854	-840.13281	335.08029	494.81528	-860.17603	192.83099	262.30179	-864.76947	106.67788	96.43526	-911.19287	58.02222	85.5576	-953.45898	244.64981	29.74968	-922.86963	351.89224	1685.8894	-1003.56592	NaN	NaN	NaN	NaN	NaN	NaN	NaN	NaN	NaN	NaN	NaN	NaN	NaN	NaN	NaN	NaN	NaN	NaN	NaN	NaN	NaN	NaN	NaN	NaN	NaN	NaN	NaN	NaN	NaN	NaN	NaN	NaN	NaN
183	1.82	466.12112	1651.021	-1055.97888	456.18839	1637.08301	-925.15179	335.81857	1593.16699	-1069.03711	326.94897	1583.99585	-940.29865	333.4422	1435.23059	-1009.67499	294.9075	1107.82568	-994.3642	443.44275	1357.82654	-1007.52954	481.7869	1182.04578	-1010.84503	258.85077	1267.02344	-924.67157	386.8093	1388.33374	-1170.14319	344.0556	1189.42578	-1233.10791	312.79938	1080.97449	-1236.92188	302.85886	929.76422	-1252.12207	338.36697	806.82434	-1206.8313	276.37689	813.58368	-1241.82629	297.21429	724.7655	-1238.09619	394.81769	1392.04407	-848.23676	391.85532	1195.61572	-753.55127	435.19263	1083.59619	-734.16907	510.06366	992.12213	-718.53473	638.11444	916.49518	-754.50739	594.14069	883.92804	-715.55273	668.88885	845.74017	-714.88409	476.19537	949.7453	-1103.04407	467.56784	949.80444	-883.32611	315.72861	972.8111	-1083.68665	317.09583	977.52069	-914.58728	468.7713	640.40894	-1173.29358	519.5752	488.39426	-1146.03772	551.31976	233.70685	-1149.1178	597.69543	65.50805	-1112.2959	561.69543	42.46589	-1065.60791	743.51086	67.57373	-1105.90625	367.81912	619.58612	-841.23743	344.21796	493.94879	-861.39886	198.50885	263.71741	-865.25653	108.72507	99.67561	-911.05542	59.93297	89.90218	-953.27832	244.80174	29.67246	-922.99756	360.48364	1685.1637	-1005.0249	NaN	NaN	NaN	NaN	NaN	NaN	NaN	NaN	NaN	NaN	NaN	NaN	NaN	NaN	NaN	NaN	NaN	NaN	NaN	NaN	NaN	NaN	NaN	NaN	NaN	NaN	NaN	NaN	NaN	NaN	NaN	NaN	NaN
184	1.83	474.81992	1650.53833	-1057.43237	464.8024	1636.51685	-926.54071	344.41486	1592.67078	-1070.5802	335.49542	1583.39563	-941.8949	342.09708	1434.50354	-1011.5296	304.79691	1106.79346	-996.56439	452.40036	1357.40674	-1009.10583	491.36758	1181.76807	-1012.42346	267.63803	1265.88977	-926.8866	395.87155	1387.80249	-1171.87561	353.75378	1188.74231	-1234.9364	322.81342	1080.23035	-1238.80029	313.22638	928.95056	-1253.99133	348.92426	806.14624	-1208.58435	286.94043	812.80945	-1243.83533	308.02133	723.9317	-1239.87463	403.35629	1391.22314	-849.83337	399.92026	1194.56653	-755.09448	442.36896	1082.24902	-735.94141	516.50006	990.11652	-720.25604	643.84265	913.2804	-756.09906	599.57751	881.15851	-717.19434	673.99872	842.27863	-716.617	486.79559	949.09589	-1104.44495	477.27039	949.11591	-884.6521	324.6644	972.66425	-1086.16528	326.94965	976.77155	-916.58337	479.4942	639.84283	-1174.65906	528.56775	487.46494	-1147.79578	557.65948	232.56946	-1149.13464	600.10645	64.87992	-1112.51099	564.04999	43.80936	-1065.38953	746.46143	58.93024	-1106.40295	377.56134	618.65186	-842.40948	354.59778	493.04562	-862.01544	204.56418	265.33038	-865.86664	111.02521	103.2922	-910.86237	62.12173	94.76909	-952.98907	244.95911	29.78965	-923.02179	369.08865	1684.60339	-1006.45367	NaN	NaN	NaN	NaN	NaN	NaN	NaN	NaN	NaN	NaN	NaN	NaN	NaN	NaN	NaN	NaN	NaN	NaN	NaN	NaN	NaN	NaN	NaN	NaN	NaN	NaN	NaN	NaN	NaN	NaN	NaN	NaN	NaN
